<?xml version="1.0" standalone="no"?>
<!DOCTYPE svg PUBLIC "-//W3C//DTD SVG 20010904//EN"
 "http://www.w3.org/TR/2001/REC-SVG-20010904/DTD/svg10.dtd">
<svg version="1.0" xmlns="http://www.w3.org/2000/svg"
 width="500.000000pt" height="500.000000pt" viewBox="0 0 500.000000 500.000000"
 preserveAspectRatio="xMidYMid meet">
<metadata>
Created by potrace 1.14, written by Peter Selinger 2001-2017
</metadata>
<g transform="translate(0.000000,500.000000) scale(0.100000,-0.100000)"
fill="#000000" stroke="none">
<path d="M775 3496 c-11 -12 -19 -24 -17 -28 1 -5 -2 -8 -7 -8 -6 0 -8 -9 -6
-20 2 -11 0 -20 -4 -20 -4 0 -7 -15 -7 -32 1 -25 -4 -34 -19 -36 -11 -2 -29
-13 -41 -23 -11 -11 -24 -16 -29 -12 -4 5 -3 -2 4 -14 14 -27 14 -36 1 -28 -6
4 -5 -5 2 -19 6 -14 15 -26 20 -26 5 0 6 -6 2 -12 -4 -7 -3 -10 1 -5 5 4 16 0
26 -9 11 -10 19 -12 24 -5 3 6 13 11 21 11 41 0 -21 -99 -64 -101 -9 0 -29 -2
-44 -3 -16 -1 -28 2 -28 6 0 4 -3 7 -7 7 -47 -8 -93 57 -63 87 12 12 3 44 -12
44 -5 0 -6 5 -3 10 3 6 -2 10 -12 11 -10 0 -25 2 -34 4 -42 8 -73 -76 -35 -97
9 -5 14 -13 11 -19 -4 -5 2 -6 11 -2 12 4 15 3 10 -5 -4 -7 -2 -12 4 -12 7 0
8 -6 0 -19 -7 -14 -6 -21 3 -24 9 -4 9 -6 0 -6 -7 -1 -13 -7 -13 -15 0 -8 -11
-23 -25 -34 -37 -29 -93 -21 -127 18 -34 37 -34 43 -5 67 12 10 22 27 22 38 0
22 -16 45 -27 39 -4 -2 -9 0 -13 6 -4 7 -14 6 -28 -2 -32 -18 -48 -18 -54 -2
-3 8 -9 11 -14 8 -5 -3 -9 0 -9 6 0 6 -11 3 -26 -7 l-26 -17 25 -22 c14 -12
24 -24 21 -27 -3 -2 7 -15 21 -28 13 -13 25 -30 25 -36 0 -7 5 -13 10 -13 6 0
10 -6 10 -14 0 -7 6 -19 14 -26 8 -6 12 -19 9 -27 -4 -11 -2 -14 5 -9 7 4 12
1 12 -8 0 -9 5 -16 11 -16 5 0 8 -4 4 -9 -3 -5 -1 -12 5 -16 6 -4 8 -11 5 -16
-4 -5 -1 -9 4 -9 6 0 11 -8 11 -18 0 -10 6 -26 13 -37 7 -11 12 -29 11 -40 -1
-20 4 -20 440 -20 243 1 447 4 454 9 7 4 10 12 7 17 -4 5 -1 9 4 9 6 0 11 8
11 18 0 10 6 24 13 31 8 10 8 12 0 7 -7 -4 -6 5 3 24 9 16 20 30 25 30 6 0 8
4 4 9 -3 5 -1 12 5 16 6 4 8 10 5 15 -3 5 3 13 12 19 10 6 15 11 10 11 -10 0
64 110 75 110 5 0 7 4 4 9 -3 5 1 12 10 15 9 4 14 9 11 13 -4 3 1 12 11 19 9
7 13 16 9 20 -11 11 -67 14 -67 4 0 -16 -41 -22 -56 -9 -16 13 -51 23 -40 11
4 -3 -4 -12 -16 -19 -13 -7 -17 -12 -9 -13 11 0 11 -3 1 -15 -8 -9 -8 -15 -2
-15 6 0 14 -9 17 -20 4 -11 10 -18 15 -15 4 3 10 -4 13 -15 3 -11 1 -18 -4
-14 -5 3 -9 0 -9 -6 0 -12 -11 -24 -44 -50 -18 -13 -19 -13 -11 0 7 12 6 13
-6 3 -8 -7 -28 -10 -45 -7 -64 11 -98 108 -48 141 13 8 21 20 17 26 -4 7 0 8
13 3 15 -5 16 -4 7 5 -6 6 -9 18 -6 25 3 8 0 14 -7 14 -6 0 -9 4 -5 9 15 26
-61 35 -88 10 -17 -15 -21 -69 -5 -69 4 0 8 -5 8 -11 0 -5 -5 -7 -12 -3 -7 5
-8 3 -3 -5 6 -11 -34 -61 -42 -53 -9 7 -23 0 -17 -9 5 -8 1 -8 -14 0 -13 7
-23 7 -27 2 -3 -6 -15 -8 -28 -5 -12 3 -26 6 -32 7 -21 5 -35 19 -29 29 4 6 3
9 -2 6 -13 -8 -29 13 -32 41 -1 17 2 22 12 18 20 -8 88 12 81 24 -4 5 -2 9 3
9 5 0 9 6 9 13 0 6 2 17 3 22 5 17 -12 65 -20 60 -5 -3 -14 1 -22 8 -7 8 -19
12 -27 9 -8 -3 -11 0 -7 7 4 6 3 11 -3 11 -5 0 -8 8 -6 18 1 9 -2 23 -8 30 -6
8 -6 12 3 12 9 0 7 7 -6 21 -10 12 -18 23 -16 25 6 10 1 25 -7 20 -5 -4 -11
-1 -13 6 -7 19 -32 16 -53 -6z"/>
<path d="M1946 3072 c-3 -5 -28 -8 -56 -7 -28 1 -53 -2 -56 -7 -3 -5 -10 -6
-15 -2 -6 3 -20 -2 -31 -13 -14 -12 -18 -13 -13 -3 8 13 7 13 -11 0 -10 -8
-27 -24 -36 -34 -10 -10 -18 -15 -18 -11 0 12 -46 -58 -52 -80 -3 -11 -9 -29
-14 -39 -5 -14 -4 -17 4 -12 7 4 12 2 12 -3 0 -6 -4 -11 -9 -11 -6 0 -8 -10
-6 -22 3 -12 -1 -26 -8 -30 -8 -5 -6 -8 6 -8 10 0 15 -5 12 -10 -4 -6 -1 -17
5 -25 9 -11 9 -15 1 -15 -7 0 -3 -10 9 -22 11 -12 20 -28 20 -35 0 -8 5 -11
10 -8 6 3 10 -1 10 -9 0 -9 7 -16 15 -16 8 0 15 -4 15 -10 0 -5 7 -10 15 -10
8 0 15 -4 15 -10 0 -5 8 -10 18 -10 10 0 23 -5 30 -12 9 -9 12 -9 12 1 0 10 3
11 14 2 15 -13 125 -21 132 -10 2 4 13 5 24 2 29 -8 74 35 58 54 -6 8 -7 13
-2 12 21 -4 28 2 14 11 -12 8 -13 11 -1 19 9 6 10 11 2 15 -6 4 -14 -1 -18
-11 -9 -23 -44 -57 -63 -61 -14 -3 -77 -3 -115 0 -8 1 -15 5 -15 10 0 4 -7 8
-15 8 -8 0 -15 5 -15 10 0 6 -5 10 -11 10 -6 0 -17 7 -25 15 -9 8 -13 15 -10
15 3 0 -2 9 -11 20 -16 19 -23 38 -26 73 -1 9 -4 17 -7 17 -6 0 -3 64 4 100 5
28 19 55 33 63 7 5 10 13 7 19 -4 7 -2 8 5 4 6 -4 14 0 17 9 4 9 13 14 20 11
8 -3 14 -1 14 4 0 5 15 10 33 10 17 0 39 0 47 1 23 1 61 -9 74 -21 7 -5 15 -7
19 -4 3 3 13 -10 22 -30 18 -38 35 -48 31 -18 -2 9 2 20 8 24 8 5 8 8 0 8 -6
0 -9 13 -6 30 4 26 1 30 -19 31 -13 1 -27 1 -31 0 -5 0 -8 3 -8 8 0 5 -14 7
-31 4 -21 -3 -29 -1 -24 6 3 6 4 11 1 11 -3 0 -7 -4 -10 -8z"/>
<path d="M3323 3059 c-13 -5 -23 -14 -22 -21 0 -10 2 -10 6 -1 3 10 7 10 18 0
7 -7 11 -15 8 -19 -2 -5 1 -8 8 -8 6 0 9 -8 6 -20 -3 -11 -1 -20 5 -20 6 0 8
-9 5 -20 -3 -11 0 -18 6 -17 6 1 12 -5 13 -13 0 -8 2 -17 3 -20 2 -3 4 -12 6
-20 8 -37 10 -45 18 -51 4 -3 9 -19 11 -36 3 -17 9 -40 15 -51 6 -11 7 -22 4
-26 -3 -3 -1 -6 6 -6 7 0 9 -4 6 -10 -3 -5 -2 -10 4 -10 5 0 8 -11 7 -25 -2
-13 1 -22 5 -19 5 3 9 -4 9 -15 0 -12 5 -21 11 -21 5 0 7 -4 4 -10 -3 -5 0 -7
7 -5 12 5 30 39 36 68 1 4 8 20 16 36 9 16 12 31 9 35 -4 3 -1 6 5 6 7 0 11 3
11 8 -1 4 0 10 1 15 4 12 7 26 9 38 0 5 5 8 10 5 5 -4 8 5 6 19 -1 14 3 29 9
33 6 4 11 13 11 21 0 27 25 23 37 -6 6 -15 11 -31 10 -35 -1 -5 2 -8 7 -8 6 0
8 -9 6 -20 -2 -11 0 -18 6 -15 5 4 9 -2 9 -13 0 -10 3 -22 7 -26 7 -6 13 -29
15 -53 1 -7 4 -11 6 -8 7 6 32 -43 32 -62 0 -8 6 -20 13 -27 10 -11 15 -10 25
0 7 8 12 16 12 19 -1 21 1 26 9 21 4 -3 6 6 3 19 -2 14 0 25 5 25 8 0 12 15
15 58 1 6 5 12 10 12 4 0 7 3 7 8 -4 24 2 42 13 36 7 -4 8 -3 4 5 -4 6 -1 25
8 41 9 20 10 28 3 24 -8 -5 -8 -3 1 7 6 7 12 21 12 32 0 10 4 16 9 13 5 -4 8
2 6 11 -1 10 3 27 10 38 6 11 11 28 9 38 -1 9 1 15 6 12 4 -2 16 5 26 18 16
19 16 20 1 8 -15 -12 -17 -12 -11 2 5 13 -1 14 -38 10 -24 -3 -47 -10 -53 -16
-7 -7 -6 -8 3 -3 22 13 19 -63 -4 -80 -12 -10 -12 -13 -2 -16 11 -4 10 -8 -1
-21 -7 -10 -10 -17 -6 -17 4 0 2 -6 -4 -14 -6 -8 -11 -18 -10 -22 1 -5 0 -12
-1 -16 -4 -13 -7 -27 -9 -39 0 -5 -5 -8 -10 -5 -5 4 -7 -2 -4 -13 3 -10 0 -22
-6 -25 -6 -4 -11 -13 -11 -19 0 -7 4 -6 10 3 6 9 10 10 10 3 0 -26 -20 -22
-35 7 -8 16 -12 30 -8 30 5 0 4 4 -2 8 -11 8 -36 69 -38 90 0 6 -4 12 -9 12
-4 0 -8 9 -8 20 0 11 -4 20 -9 20 -5 0 -12 7 -15 16 -3 8 -2 12 4 9 6 -3 7 1
4 9 -3 9 -10 16 -16 16 -5 0 -7 4 -3 9 3 5 1 12 -5 16 -6 4 -8 10 -5 15 9 14
-20 18 -33 4 -7 -8 -9 -14 -5 -14 4 0 1 -5 -7 -10 -11 -7 -12 -10 -2 -10 10 0
8 -8 -6 -27 -21 -29 -22 -33 -22 -59 0 -8 -4 -13 -9 -10 -5 3 -9 0 -8 -7 1
-34 -4 -48 -15 -41 -7 4 -8 3 -4 -4 9 -15 -4 -63 -15 -57 -4 3 -7 -7 -6 -22 1
-20 -3 -29 -17 -31 -11 -3 -16 0 -12 7 4 6 2 11 -5 11 -7 0 -9 3 -6 7 4 3 2
12 -3 19 -6 6 -10 16 -9 20 3 11 -10 63 -22 89 -5 11 -11 31 -13 45 -2 14 -9
37 -14 51 -8 21 -7 30 6 44 9 10 11 15 5 11 -7 -4 -13 -4 -13 1 0 10 -52 9
-67 0 -6 -4 -13 -3 -15 2 -2 5 -13 5 -25 0z"/>
<path d="M2163 2945 c-18 -13 -24 -15 -19 -5 10 16 -20 -13 -44 -45 -13 -17
-13 -18 0 -11 9 4 8 2 -2 -7 -10 -8 -15 -17 -11 -21 4 -4 1 -11 -7 -16 -8 -6
-10 -10 -5 -10 6 0 12 -8 13 -17 4 -42 9 -55 23 -64 8 -5 10 -9 6 -9 -4 0 -2
-6 5 -14 7 -8 16 -12 21 -9 4 2 7 -1 7 -7 0 -6 5 -8 10 -5 6 3 10 1 10 -6 0
-8 5 -7 17 2 13 11 15 11 9 1 -6 -11 0 -13 30 -11 22 2 48 8 58 14 28 15 76
62 69 68 -2 3 0 13 5 23 6 11 7 27 1 42 -6 15 -5 21 1 17 14 -9 -6 43 -24 60
-7 8 -16 11 -20 8 -3 -4 -6 1 -6 9 0 9 -9 18 -19 21 -20 5 -41 -9 -41 -27 0
-5 3 -6 6 -3 11 11 43 -33 50 -67 10 -58 -7 -126 -33 -126 -8 0 -12 -4 -9 -9
3 -5 -8 -11 -25 -13 -22 -3 -29 -1 -25 9 3 7 2 12 -2 12 -33 -5 -71 32 -68 65
2 14 0 23 -4 21 -9 -5 -6 37 5 78 6 24 16 32 38 28 4 0 6 4 5 10 -2 6 3 14 11
17 10 3 11 0 5 -9 -7 -12 -5 -12 9 0 13 10 17 10 17 1 0 -10 3 -10 15 0 9 7
13 15 10 18 -12 13 -67 5 -92 -13z"/>
<path d="M2613 2920 c1 -27 5 -50 9 -50 7 0 4 -25 -8 -62 -3 -12 -2 -18 3 -15
5 4 10 0 10 -8 0 -8 -1 -15 -2 -15 -5 0 -53 49 -79 80 -16 19 -31 34 -33 32
-6 -4 -43 44 -43 57 0 6 -5 11 -11 11 -5 0 -7 -6 -3 -12 4 -7 -1 -5 -12 4 -19
17 -19 15 -19 -90 1 -59 -2 -114 -6 -123 -4 -8 -5 -19 -1 -25 9 -11 52 -14 52
-2 0 4 -5 8 -11 8 -5 0 -7 5 -3 12 12 18 11 59 -1 55 -5 -3 -10 6 -10 18 0 13
2 22 4 19 2 -2 9 4 16 13 12 17 51 11 41 -6 -3 -5 4 -11 15 -14 12 -3 18 -10
14 -16 -3 -6 1 -11 9 -11 8 0 23 -13 32 -29 10 -17 21 -28 26 -25 4 3 11 -2
14 -10 9 -24 31 -19 30 7 -1 12 2 25 7 28 5 4 4 16 -2 28 -9 16 -9 21 1 21 6
0 3 7 -8 15 -19 15 -19 15 1 8 17 -6 18 -5 7 9 -10 13 -10 17 0 21 10 4 10 7
-1 15 -11 8 -11 11 0 17 9 6 8 10 -7 16 -16 7 -17 8 -2 8 21 1 21 51 0 51 -7
0 -10 -6 -7 -12 4 -7 0 -5 -8 5 -13 16 -15 13 -14 -33z m-145 -77 c-13 -16
-21 -10 -23 16 -1 16 2 17 16 8 14 -8 15 -14 7 -24z"/>
<path d="M2807 2959 c-16 -4 -36 -6 -45 -4 -15 3 -17 -8 -12 -111 4 -97 3
-114 -10 -114 -10 0 -7 -7 10 -20 28 -22 45 -26 34 -8 -5 8 -3 8 7 2 8 -5 30
-9 49 -9 19 -1 41 -4 47 -8 9 -6 11 -3 6 9 -5 14 -2 16 15 12 15 -4 22 -2 22
9 0 8 4 12 8 9 9 -6 42 29 42 44 0 6 4 10 9 10 5 0 7 10 3 22 -4 16 -2 19 8
13 10 -6 11 -4 4 6 -5 8 -10 25 -12 39 -2 13 -9 28 -15 32 -7 4 -9 8 -4 8 7 0
-25 37 -33 37 -3 1 -8 2 -12 3 -13 4 -27 7 -39 9 -5 0 -7 7 -3 14 6 9 5 9 -8
0 -8 -7 -18 -10 -21 -6 -4 3 -7 0 -8 -8 0 -11 -2 -10 -7 2 -5 12 -14 14 -35 8z
m23 -19 c0 -5 11 -10 25 -10 14 0 34 -9 44 -19 11 -11 22 -17 25 -13 3 3 6 -7
6 -22 0 -16 4 -25 10 -21 6 3 10 -1 10 -10 0 -10 -5 -13 -12 -9 -10 6 -10 5
-1 -7 13 -16 12 -36 0 -56 -5 -7 -5 -18 -1 -25 4 -7 3 -8 -5 -4 -6 4 -14 1
-17 -7 -3 -8 -13 -14 -22 -12 -9 1 -20 -3 -24 -8 -12 -19 -49 -15 -61 7 -14
26 -16 57 -5 73 5 6 5 14 -2 18 -7 4 -7 12 0 24 5 10 6 21 3 25 -12 12 -12 36
0 36 7 0 6 4 -3 10 -12 8 -12 10 3 16 9 3 14 10 11 15 -3 5 0 9 5 9 6 0 11 -4
11 -10z"/>
<path d="M3116 2955 c-10 -8 -24 -12 -30 -8 -6 3 -8 3 -4 -2 4 -4 -6 -21 -22
-37 -31 -30 -39 -45 -18 -32 6 4 4 -3 -5 -16 -11 -16 -13 -28 -7 -41 7 -12 6
-19 -3 -22 -9 -4 -9 -6 1 -6 7 -1 10 -5 7 -11 -3 -5 -1 -10 6 -10 7 0 10 -3 6
-6 -7 -7 38 -54 53 -54 5 0 10 -6 10 -12 0 -9 4 -8 10 2 5 8 10 10 10 4 0 -20
111 -6 118 14 2 7 8 10 13 6 5 -3 9 2 9 10 0 9 4 16 9 16 8 0 24 32 26 52 0 3
3 10 7 13 4 4 3 16 -2 26 -6 9 -7 25 -3 35 4 11 3 15 -4 11 -6 -4 -14 4 -17
18 -4 14 -13 25 -21 25 -8 0 -15 5 -15 11 0 5 -4 7 -10 4 -5 -3 -10 -1 -10 6
0 7 -3 10 -6 6 -3 -3 -17 -2 -30 3 -16 6 -24 6 -24 -1 0 -6 -4 -7 -10 -4 -5 3
-10 2 -10 -3 0 -17 13 -21 33 -11 14 8 18 8 13 0 -4 -6 0 -11 9 -11 9 0 13 -4
10 -10 -3 -5 1 -10 10 -10 9 0 14 -4 10 -9 -3 -5 2 -17 11 -25 11 -12 12 -16
2 -16 -8 0 -9 -3 -2 -8 19 -13 4 -112 -17 -112 -6 0 -7 -5 -3 -12 5 -7 2 -9
-9 -5 -8 3 -21 -1 -27 -8 -14 -17 -31 -10 -76 32 -17 16 -29 35 -26 46 2 9 -2
17 -8 17 -6 0 -8 5 -4 12 5 7 9 28 10 47 1 20 8 38 18 43 9 5 14 13 11 18 -3
5 0 12 6 16 7 4 9 3 5 -4 -3 -6 -3 -13 2 -16 4 -2 9 6 10 20 2 28 3 28 -22 9z"/>
<path d="M4033 2962 c-13 -2 -23 -8 -23 -13 0 -6 5 -7 12 -3 7 4 8 3 4 -5 -6
-9 -11 -9 -21 -1 -10 8 -16 7 -24 -7 -6 -10 -11 -13 -11 -8 0 6 -9 -5 -21 -24
-22 -37 -29 -123 -10 -129 6 -2 11 -8 11 -13 0 -14 33 -49 48 -49 7 0 25 -8
39 -17 15 -10 24 -13 20 -6 -5 8 3 10 27 8 21 -2 39 2 47 11 6 7 16 11 23 7 6
-3 8 -3 4 1 -9 11 14 36 26 28 5 -3 6 0 2 6 -3 6 -2 13 4 17 5 3 10 16 10 28
0 18 2 19 10 7 6 -9 10 -10 10 -3 0 6 -5 15 -10 18 -8 5 -8 11 -1 19 7 9 7 16
-1 24 -7 7 -8 12 -3 12 4 0 0 9 -10 20 -10 11 -14 20 -9 20 5 0 -3 8 -16 17
-14 10 -25 15 -25 13 -1 -3 -14 3 -29 14 -17 11 -25 13 -20 5 6 -11 5 -12 -7
-2 -12 10 -17 8 -28 -8 -11 -19 -10 -20 8 -14 28 8 84 -45 74 -70 -4 -13 -3
-16 5 -11 7 4 12 2 12 -3 0 -6 -6 -11 -12 -11 -10 0 -10 -2 -1 -8 12 -8 13
-62 1 -62 -5 0 -8 -6 -8 -14 0 -20 -27 -39 -61 -43 -21 -2 -28 1 -23 9 4 6 3
8 -3 5 -16 -10 -63 36 -63 61 0 12 -4 22 -9 22 -8 0 -7 16 2 63 4 21 26 48 57
70 27 19 25 24 -7 19z"/>
<path d="M4481 2963 c0 -6 -10 -10 -21 -8 -11 2 -22 -1 -26 -6 -3 -5 -2 -9 3
-8 20 4 34 -2 28 -12 -4 -5 -8 -21 -10 -35 -2 -21 0 -22 13 -12 13 11 14 10 5
-7 -5 -11 -8 -36 -6 -57 3 -23 -1 -39 -9 -44 -7 -4 -10 -4 -6 1 8 9 -15 35
-31 35 -6 0 -10 3 -9 8 2 4 -27 37 -64 74 -58 58 -68 65 -73 48 -4 -11 -3 -24
0 -30 3 -5 3 -10 -2 -10 -9 0 -8 -73 1 -89 4 -5 -2 -14 -11 -20 -10 -6 -13
-11 -7 -11 13 0 16 -48 3 -56 -5 -3 -3 -11 4 -18 14 -16 52 -2 41 16 -10 16
-11 136 -2 151 6 9 8 9 8 -1 0 -7 28 -40 63 -73 34 -34 61 -65 59 -71 -1 -5 2
-7 8 -3 5 3 10 2 10 -3 0 -5 10 -12 23 -14 22 -4 22 -3 21 96 0 56 3 111 8
124 5 14 4 21 -1 17 -5 -3 -12 3 -14 12 -3 10 -5 13 -6 6z"/>
<path d="M4647 2952 c4 -8 0 -10 -11 -6 -10 4 -18 0 -22 -10 -3 -9 -10 -14
-15 -11 -10 7 -31 -30 -22 -39 3 -3 1 -6 -6 -6 -7 0 -9 -4 -6 -10 3 -5 2 -10
-2 -10 -5 0 -9 -16 -10 -35 0 -23 3 -33 11 -28 6 4 4 -2 -4 -12 -9 -11 -10
-16 -2 -11 7 4 12 2 12 -5 0 -19 60 -71 76 -65 8 3 14 0 14 -6 0 -7 5 -6 15 2
16 13 21 35 6 26 -13 -8 -56 34 -53 51 2 9 -1 12 -7 8 -12 -7 -14 8 -12 64 0
19 6 38 12 42 6 4 8 12 5 18 -4 6 0 11 9 11 8 0 18 7 22 16 5 13 7 13 14 2 7
-10 9 -10 9 2 0 13 1 13 10 0 9 -13 10 -13 10 0 0 13 1 13 10 0 7 -11 10 -11
10 -2 0 7 5 10 10 7 6 -4 7 -12 4 -18 -4 -7 -3 -9 1 -4 5 4 19 -2 31 -14 22
-21 22 -21 33 -1 13 24 -9 48 -35 38 -14 -5 -15 -4 -5 7 9 12 6 14 -20 11 -17
-2 -35 -6 -40 -9 -5 -4 -9 -3 -9 2 0 4 -11 8 -24 8 -15 0 -22 -5 -19 -13z
m147 -37 c-4 -8 -11 -12 -16 -9 -6 4 -5 10 3 15 19 12 19 11 13 -6z"/>
<path d="M4733 2817 c-4 -6 -1 -7 6 -2 9 5 12 1 11 -11 -1 -11 -1 -21 0 -24 8
-21 3 -48 -12 -62 -15 -15 -19 -15 -25 -3 -7 12 -10 12 -20 -4 -10 -16 -7 -18
25 -19 21 -1 48 5 62 13 14 8 21 14 16 15 -5 0 -3 6 3 14 9 10 9 16 1 21 -8 5
-8 11 1 21 9 11 8 14 -2 14 -9 1 -8 5 5 15 23 17 23 17 -27 20 -20 1 -40 -2
-44 -8z"/>
<path d="M1221 2784 c-1 -9 -71 -11 -256 -10 -140 1 -255 -2 -255 -7 0 -4 -5
-5 -12 -1 -17 10 -228 11 -228 1 0 -4 -5 -5 -12 -1 -20 13 -78 11 -90 -3 -6
-7 -7 -13 -3 -13 4 0 1 -8 -6 -17 -10 -11 -10 -14 -1 -9 8 5 12 0 12 -16 0
-13 4 -18 8 -13 9 13 52 14 52 1 0 -6 4 -6 11 1 6 6 23 8 45 3 19 -5 32 -4 28
1 -3 5 -1 9 5 9 5 0 13 -5 16 -10 4 -6 13 -7 23 -1 10 5 24 6 33 1 8 -5 21 -5
29 0 7 4 23 4 36 0 12 -5 25 -6 28 -3 9 9 66 9 66 0 0 -5 4 -6 9 -2 6 3 8 -4
6 -16 -4 -18 -2 -19 12 -7 12 9 15 9 9 1 -4 -7 -2 -13 3 -13 6 0 11 5 11 10 0
6 5 10 11 10 5 0 8 -4 4 -9 -3 -6 3 -9 14 -8 11 0 17 5 14 10 -10 16 30 35 54
26 13 -5 25 -4 28 1 4 6 13 7 24 1 10 -6 23 -6 32 0 19 12 32 11 23 -2 -4 -8
0 -8 15 0 14 8 21 8 21 1 0 -7 6 -8 19 0 24 12 34 13 27 2 -5 -9 47 -7 63 2 5
4 12 2 15 -3 6 -10 13 -9 59 4 21 6 27 12 24 26 -3 11 -1 19 5 19 5 0 6 5 3
10 -4 6 -10 8 -15 5 -5 -3 -11 3 -13 12 -3 10 -5 13 -6 7z"/>
<path d="M2736 2688 c3 -5 10 -6 15 -3 13 9 11 12 -6 12 -8 0 -12 -4 -9 -9z"/>
<path d="M797 2642 c-9 -2 -15 -7 -12 -12 3 -4 -13 -24 -34 -43 -37 -34 -38
-36 -22 -54 9 -10 19 -22 20 -28 9 -28 14 -34 21 -30 7 5 24 -23 22 -36 0 -3
5 -6 13 -6 7 0 11 7 7 15 -3 9 -1 13 4 10 5 -2 19 6 31 19 12 13 20 23 16 23
-3 0 5 9 18 21 19 17 21 22 9 29 -8 6 -11 10 -6 10 4 0 -5 12 -21 28 -16 15
-34 34 -39 42 -5 9 -17 14 -27 12z"/>
<path d="M763 2414 c0 -7 4 -11 9 -8 4 3 8 1 8 -4 0 -5 -10 -14 -23 -19 -19
-9 -26 -8 -35 6 -10 14 -11 13 -5 -4 5 -16 3 -18 -7 -8 -9 8 -19 9 -31 3 -11
-7 -20 -7 -24 0 -4 7 -13 7 -26 0 -10 -6 -19 -7 -19 -3 0 8 -35 8 -92 0 -16
-2 -28 0 -28 5 0 5 -5 6 -11 3 -6 -4 -8 -13 -5 -21 3 -7 1 -16 -5 -20 -7 -4
-6 -10 0 -18 6 -7 8 -16 4 -20 -4 -4 0 -4 10 0 11 4 17 1 17 -7 1 -9 4 -8 11
4 8 13 15 15 28 7 10 -5 21 -6 25 -2 4 3 11 0 16 -8 8 -13 10 -13 10 1 0 14 6
16 35 9 21 -5 35 -4 35 1 0 6 7 6 18 0 11 -6 24 -6 36 1 14 8 17 7 12 -1 -4
-6 -3 -11 3 -11 5 0 11 3 13 8 2 4 14 -4 28 -17 21 -21 22 -23 5 -17 -17 6
-18 5 -7 -6 11 -11 16 -10 26 5 7 9 21 17 30 17 9 0 16 5 16 11 0 5 5 7 10 4
6 -3 10 0 10 7 0 8 3 9 8 3 9 -13 32 -18 32 -7 0 12 74 1 82 -12 5 -7 8 -5 8
5 0 12 8 14 33 11 17 -3 35 -10 39 -16 5 -7 8 -4 8 7 0 15 3 16 20 7 13 -7 20
-7 20 -1 0 6 6 8 14 5 8 -3 17 0 22 7 5 8 3 10 -7 5 -8 -4 -5 0 5 8 12 10 15
16 7 16 -7 0 -11 6 -8 14 4 10 -2 13 -24 12 -16 -1 -29 0 -29 4 0 5 -40 4 -92
-3 -16 -2 -28 -1 -28 2 0 3 -27 5 -59 4 -46 -2 -60 1 -65 13 -3 9 -4 20 0 25
3 5 1 9 -5 9 -5 0 -11 -5 -13 -12 -3 -8 -12 -9 -34 -1 -24 9 -31 8 -31 -3z"/>
<path d="M4207 2360 c-16 -5 -37 -7 -47 -5 -16 3 -17 0 -10 -25 5 -18 4 -32
-3 -40 -9 -9 -9 -11 -1 -7 7 4 12 -3 12 -18 0 -14 -4 -22 -9 -19 -5 3 -9 1 -9
-4 0 -5 -7 -9 -15 -9 -11 0 -12 4 -3 14 8 10 8 12 -4 8 -10 -4 -14 0 -13 14 1
11 4 24 8 27 3 4 1 16 -5 28 -6 11 -11 23 -10 25 1 3 -16 5 -37 5 -22 1 -37
-2 -34 -7 2 -4 -3 -10 -12 -13 -9 -4 -12 -11 -7 -18 16 -22 12 -65 -7 -76 -14
-7 -21 -6 -24 3 -3 7 -6 4 -6 -6 -1 -17 -3 -17 -16 -3 -12 11 -22 13 -40 6
-18 -7 -25 -6 -25 2 0 6 -2 9 -5 7 -9 -10 8 -49 22 -49 8 0 12 3 9 8 -2 4 17
7 42 6 26 0 50 4 55 10 5 8 10 7 16 -3 7 -11 9 -11 14 0 3 8 6 9 6 4 1 -11 92
-12 110 -1 6 4 11 3 11 -2 0 -10 36 -9 46 0 3 4 17 3 30 -2 15 -6 24 -6 25 0
1 6 2 16 3 23 1 7 13 11 31 9 19 -2 25 1 17 6 -9 6 -4 14 18 31 17 12 28 26
25 32 -4 5 -1 9 4 9 19 0 12 17 -9 23 -11 3 -18 1 -14 -4 3 -5 -6 -10 -20 -10
-14 -1 -31 -2 -38 -3 -6 0 -12 -14 -13 -31 -1 -16 -5 -41 -9 -54 -6 -18 -10
-21 -17 -10 -5 8 -9 21 -9 29 0 13 1 13 10 0 6 -9 10 -10 10 -3 0 6 -5 15 -10
18 -8 5 -8 11 0 20 8 9 8 15 0 20 -6 3 -8 11 -5 16 4 5 1 9 -5 9 -6 0 -8 5 -5
10 3 6 5 10 3 9 -2 0 -16 -5 -31 -9z"/>
<path d="M2169 2348 c-1 -7 -1 -17 0 -21 1 -5 -3 -6 -9 -2 -6 3 -8 11 -5 16 4
5 -7 9 -23 9 -24 0 -29 -4 -25 -18 5 -21 45 -23 81 -3 21 11 26 8 23 -14 -1
-5 6 -1 14 9 8 11 15 25 14 30 0 6 -3 6 -5 -1 -4 -9 -13 -9 -30 -2 -32 12 -34
11 -35 -3z"/>
<path d="M2247 2341 c-2 -11 2 -17 13 -17 19 0 23 23 4 30 -6 2 -14 -3 -17
-13z"/>
<path d="M2289 2348 c0 -7 -1 -61 -2 -119 l0 -106 -79 2 c-43 1 -81 -2 -84 -7
-3 -5 -11 -5 -17 -2 -7 4 -3 -2 8 -13 11 -11 23 -16 26 -11 3 5 9 9 13 9 3 -1
7 -1 9 0 29 9 47 7 41 -3 -6 -10 -4 -10 7 -2 8 6 28 11 46 11 25 0 30 -4 28
-19 -2 -10 2 -18 8 -18 8 0 8 -3 2 -8 -13 -9 -14 -65 0 -74 6 -5 5 -8 -4 -8
-11 0 -11 -3 -1 -15 7 -8 8 -15 3 -15 -5 0 -8 -18 -7 -40 1 -38 -8 -51 -21
-30 -9 14 -27 2 -19 -13 3 -7 -2 -3 -12 8 -11 13 -15 15 -11 5 6 -21 -32 -24
-40 -4 -4 12 -8 12 -20 2 -11 -9 -16 -9 -23 1 -6 11 -9 11 -13 0 -5 -12 -7
-12 -15 -1 -8 11 -10 11 -14 0 -3 -7 0 -18 6 -23 13 -11 56 -15 56 -5 0 9 76
4 92 -6 7 -4 8 -3 4 4 -8 13 50 12 71 -1 9 -6 11 -3 6 9 -5 14 -3 15 15 5 14
-7 23 -8 27 -1 4 6 12 4 21 -5 9 -8 21 -12 27 -8 7 4 41 8 77 9 86 2 87 2 87
19 0 19 -46 17 -70 -4 -17 -14 -20 -14 -34 4 -16 20 -16 20 -9 0 6 -19 5 -19
-8 -2 -10 14 -15 15 -19 5 -4 -11 -7 -11 -15 0 -5 7 -16 10 -26 6 -15 -6 -16
4 -14 107 l3 114 52 0 c42 0 53 3 57 18 3 13 1 16 -7 10 -10 -8 -53 -10 -94
-4 -18 2 -20 54 -3 69 8 8 10 11 4 8 -7 -3 -14 5 -16 19 -3 14 -1 25 4 25 5 0
4 9 -2 20 -7 13 -7 20 -1 20 6 0 8 7 5 15 -5 13 1 17 22 14 8 -1 24 23 24 36
0 7 -3 7 -8 0 -8 -11 -133 -14 -125 -2 2 4 -1 7 -6 7 -6 0 -11 -6 -12 -12z
m135 -489 c-3 -5 -10 -7 -15 -3 -5 3 -7 10 -3 15 3 5 10 7 15 3 5 -3 7 -10 3
-15z"/>
<path d="M2447 2338 c-3 -10 0 -21 5 -25 6 -3 8 -1 5 4 -4 6 0 14 9 17 9 4 13
2 8 -5 -5 -8 -2 -9 10 -2 10 5 37 7 60 3 38 -6 43 -4 39 11 -7 26 -129 23
-136 -3z"/>
<path d="M2868 2346 c3 -5 -2 -7 -11 -3 -9 3 -18 -1 -21 -9 -9 -23 -7 -26 7
-18 6 4 4 -2 -6 -12 -15 -17 -19 -17 -27 -4 -6 9 -13 11 -17 5 -11 -14 -33
-17 -33 -5 0 7 -7 7 -20 0 -31 -17 -16 -27 37 -25 57 3 81 -3 61 -16 -10 -7
-10 -9 0 -9 10 0 10 -5 2 -20 -8 -14 -8 -20 0 -20 7 0 8 -6 2 -17 -7 -12 -4
-22 12 -36 17 -15 18 -18 3 -13 -10 3 -20 0 -23 -8 -3 -8 -16 -13 -31 -11 -13
1 -27 -3 -29 -9 -4 -10 -16 -14 -59 -18 -6 -1 -16 -7 -23 -15 -10 -10 -10 -13
3 -13 15 0 17 -11 18 -97 0 -24 4 -43 9 -43 5 0 6 -4 3 -10 -13 -21 -12 -45 1
-58 8 -7 14 -10 14 -6 0 3 6 1 14 -5 10 -8 16 -9 21 -1 3 6 11 8 16 5 5 -4 9
0 9 7 0 8 3 9 8 3 8 -11 72 -17 72 -7 0 14 -20 37 -20 25 0 -7 -9 -13 -20 -13
-11 0 -20 6 -21 13 0 6 -2 22 -3 35 -2 12 4 30 11 40 8 9 11 11 7 3 -5 -9 -3
-12 4 -7 19 11 14 37 -5 34 -14 -2 -18 3 -16 26 3 34 3 34 34 40 13 2 24 5 24
7 0 1 34 3 75 5 84 4 124 -2 115 -16 -3 -6 -3 -10 2 -10 4 0 9 -11 9 -24 1
-16 -6 -27 -22 -35 -13 -6 -24 -16 -23 -23 0 -9 2 -9 5 -2 4 9 11 9 28 1 22
-10 22 -13 7 -25 -9 -7 -11 -11 -5 -8 8 4 11 -5 10 -23 -1 -25 -3 -28 -15 -18
-12 9 -13 9 -7 0 5 -9 -1 -13 -19 -13 -18 0 -24 4 -19 13 5 8 2 8 -9 -2 -14
-11 -17 -11 -17 0 0 12 -2 12 -9 1 -11 -19 -15 -19 -34 -4 -11 9 -17 10 -22 2
-5 -8 -10 -8 -20 0 -19 16 -27 -4 -10 -26 8 -10 15 -14 15 -7 0 11 42 9 61 -3
4 -2 11 1 15 7 4 8 9 7 15 -2 5 -9 9 -10 9 -2 0 7 18 10 55 8 37 -3 55 0 55 8
0 8 3 8 8 2 4 -6 16 -11 27 -10 16 0 19 6 17 28 -2 21 0 27 9 21 8 -5 9 -3 3
7 -12 20 -14 38 -3 45 6 3 6 10 1 17 -5 7 -12 21 -16 31 -6 17 -5 17 10 5 16
-13 16 -12 4 11 -8 14 -13 28 -12 32 1 4 -7 10 -18 13 -11 4 -20 10 -20 15 0
5 -13 8 -29 8 -15 -1 -34 3 -41 7 -8 5 -11 4 -7 -2 7 -11 -112 -11 -130 0 -6
4 -14 3 -18 -2 -3 -5 -15 -8 -26 -6 -14 3 -19 0 -16 -9 3 -7 -1 -13 -8 -13 -7
0 -11 7 -8 16 4 12 1 12 -10 -2 -10 -12 -17 -15 -22 -7 -12 19 2 26 63 32 12
1 22 6 22 11 0 4 5 5 10 2 6 -4 17 -1 25 5 8 7 15 9 15 5 0 -4 11 0 25 9 14 9
31 14 37 10 7 -5 8 -3 3 6 -6 10 -4 12 8 7 10 -3 17 -2 17 4 0 6 4 7 10 4 14
-9 92 -10 118 -1 35 12 24 35 -13 26 -5 -1 -15 -3 -22 -3 -7 0 -10 -4 -7 -9 3
-4 0 -8 -5 -8 -6 0 -11 4 -11 8 0 5 -7 9 -15 9 -8 0 -12 -4 -9 -9 3 -4 -1 -8
-9 -8 -7 0 -14 7 -14 15 0 8 6 15 13 15 7 0 16 9 19 20 3 11 13 20 21 20 8 0
12 5 9 10 -3 6 1 13 9 16 9 3 16 12 16 20 0 8 5 14 11 14 5 0 7 5 4 10 -3 6
-1 10 5 10 6 0 9 4 6 9 -4 5 0 11 6 13 7 3 1 7 -14 10 -16 3 -28 2 -28 -1 0
-3 -16 -7 -34 -8 -19 -1 -47 -10 -63 -21 -15 -11 -43 -23 -60 -26 -29 -5 -33
-3 -34 17 -1 12 -1 25 0 30 0 4 -5 7 -11 8 -63 4 -75 3 -70 -5z m106 -67 c-5
-8 -1 -8 13 0 19 10 33 6 33 -9 0 -12 -37 -50 -49 -50 -7 0 -9 -4 -6 -10 3 -5
1 -10 -4 -10 -19 0 -18 69 1 82 18 11 20 10 12 -3z m-226 -202 c18 7 17 5 -12
-17 -13 -10 -17 -10 -12 -2 4 7 2 12 -4 12 -6 0 -8 5 -4 12 6 9 9 9 11 1 3 -7
12 -9 21 -6z m196 -205 c3 -5 -1 -9 -9 -9 -8 0 -12 4 -9 9 3 4 7 8 9 8 2 0 6
-4 9 -8z m46 -8 c0 -8 -19 -13 -24 -6 -3 5 1 9 9 9 8 0 15 -2 15 -3z"/>
<path d="M3350 2352 c0 -7 -18 -12 -62 -15 -9 -1 -14 -5 -11 -9 11 -19 21 -68
12 -63 -5 4 -9 1 -9 -4 0 -6 4 -11 9 -11 5 0 13 -10 16 -21 4 -12 10 -17 14
-11 7 11 110 10 128 -1 7 -4 15 -2 19 4 5 8 3 9 -6 4 -8 -5 -11 -4 -6 3 11 19
36 1 36 -25 0 -20 -4 -24 -19 -20 -10 2 -24 1 -31 -3 -7 -4 -26 -4 -41 0 -17
5 -31 5 -35 -1 -3 -5 -9 -7 -14 -4 -4 3 -10 -2 -14 -10 -7 -18 5 -20 22 -3 7
7 12 8 12 2 0 -6 7 -11 15 -11 8 0 12 4 9 9 -5 8 26 4 64 -8 8 -2 10 1 7 9 -4
6 1 3 9 -7 9 -11 14 -21 12 -23 -10 -11 -60 -12 -71 -3 -8 7 -15 7 -19 1 -3
-5 -17 -8 -31 -7 -13 2 -22 -1 -19 -5 3 -5 -4 -9 -15 -9 -18 0 -19 -3 -10 -27
7 -20 6 -29 -3 -35 -10 -6 -9 -12 6 -23 11 -8 15 -15 8 -15 -7 0 -10 -16 -9
-41 2 -22 0 -42 -4 -45 -4 -2 -5 -14 -1 -26 4 -17 2 -20 -15 -16 -16 4 -19 2
-16 -13 4 -12 14 -19 30 -19 13 0 22 4 19 9 -4 5 9 6 29 1 20 -5 33 -4 29 1
-3 5 0 9 5 9 6 0 11 -5 11 -10 0 -7 8 -7 22 1 15 8 23 8 25 2 4 -12 73 5 73
17 0 4 -22 7 -49 7 -31 -1 -47 -5 -44 -12 3 -5 0 -5 -7 1 -13 13 -5 54 12 54
6 0 5 -7 -3 -17 -13 -17 -13 -17 7 -1 14 13 23 15 31 7 8 -8 13 -8 17 0 4 6
12 11 17 11 6 0 8 -4 5 -9 -7 -10 13 -9 31 2 6 4 14 1 16 -5 4 -10 6 -10 6 0
1 6 6 12 12 12 5 0 7 -5 3 -11 -5 -8 -1 -8 14 0 15 8 22 8 26 -2 3 -6 5 -3 3
7 -2 17 -11 20 -67 21 -36 0 -71 -3 -77 -8 -9 -6 -13 -5 -13 4 0 11 -2 11 -10
-1 -7 -11 -10 -11 -10 -2 0 7 -4 11 -9 7 -15 -9 -23 13 -12 33 6 11 6 23 2 28
-5 5 -5 18 -1 29 5 11 9 14 9 6 1 -11 4 -11 16 -1 14 12 20 7 15 -15 -1 -5 4
-5 10 2 15 14 3 36 -16 29 -8 -3 -14 -1 -14 4 0 5 -7 7 -15 4 -10 -4 -15 0
-15 11 0 10 4 13 13 9 9 -6 9 -5 0 7 -10 13 0 15 80 16 51 0 100 -3 110 -9 16
-8 17 -7 6 10 -7 11 -21 19 -30 17 -12 -3 -17 2 -16 16 1 11 7 17 14 15 7 -3
13 -1 13 4 0 5 7 7 15 4 8 -4 12 -11 8 -18 -4 -7 -1 -7 9 1 8 7 18 10 21 6 4
-3 7 -1 7 6 0 7 4 9 10 6 19 -12 50 -14 50 -3 0 6 6 6 15 -2 9 -7 17 -11 18
-9 1 2 9 13 17 23 10 13 10 17 3 12 -8 -4 -13 -2 -13 6 0 10 -3 9 -10 -2 -5
-8 -12 -11 -16 -7 -4 4 -13 2 -20 -4 -8 -7 -14 -7 -19 1 -4 7 -12 7 -26 0 -13
-8 -19 -7 -19 0 0 6 -5 8 -12 4 -18 -11 -59 -14 -53 -4 3 4 -1 10 -7 13 -10 3
-10 7 1 21 8 9 16 14 19 11 3 -3 12 1 20 8 10 8 13 8 9 1 -4 -7 -1 -14 6 -17
9 -3 12 13 12 63 0 45 3 67 11 67 7 0 10 -7 6 -15 -3 -10 -1 -13 6 -8 8 4 12
0 13 -11 0 -10 2 -28 3 -41 2 -15 -2 -21 -10 -18 -7 3 -15 -1 -17 -9 -8 -20 4
-27 21 -12 10 8 13 8 9 1 -4 -7 0 -14 8 -18 8 -3 17 0 21 6 5 7 2 8 -6 3 -9
-5 -11 -4 -6 4 5 7 13 8 23 2 9 -4 24 -6 35 -3 16 4 18 13 17 53 -2 27 -5 47
-7 44 -2 -2 -11 2 -19 10 -8 8 -31 16 -51 16 -135 4 -137 4 -150 -14 -11 -14
-11 -21 -2 -32 9 -11 9 -15 1 -15 -7 0 -10 -10 -7 -24 6 -32 -3 -39 -22 -19
-26 25 -22 73 5 84 13 5 23 14 22 21 0 7 -3 8 -5 3 -2 -6 -20 -9 -39 -7 -19 2
-48 -1 -65 -6 -20 -7 -30 -8 -30 -1 0 6 -5 7 -10 4 -6 -4 -8 -10 -6 -14 3 -4
-1 -8 -9 -8 -8 0 -12 4 -9 8 2 4 -5 13 -16 19 -11 6 -20 7 -20 2z m74 -64 c-4
-60 -5 -64 -11 -50 -3 9 -9 10 -17 3 -9 -8 -12 -1 -12 27 0 33 11 48 37 51 3
1 4 -14 3 -31z"/>
<path d="M3921 2343 c10 -11 10 -14 2 -9 -7 4 -13 3 -13 -3 0 -5 4 -12 9 -16
6 -3 8 -14 6 -25 -6 -30 31 -47 55 -25 15 14 17 21 8 41 -10 22 -16 26 -35 23
-3 0 -10 6 -15 15 -5 9 -14 16 -20 16 -6 0 -5 -7 3 -17z"/>
<path d="M1105 2280 c-10 -11 -15 -23 -12 -27 4 -3 7 -1 7 5 0 6 7 9 16 5 11
-4 12 -8 4 -13 -9 -5 -9 -9 -1 -14 14 -9 -9 -47 -24 -39 -5 4 -7 3 -3 -1 8 -9
-11 -66 -22 -66 -5 0 -11 -13 -15 -30 -4 -16 -11 -30 -16 -30 -6 0 -7 -9 -4
-21 5 -15 4 -19 -4 -15 -6 4 -11 2 -11 -5 0 -7 -8 -5 -19 7 -10 10 -17 22 -14
27 2 4 0 7 -5 7 -5 0 -15 11 -22 25 -7 13 -17 22 -23 18 -5 -3 -8 0 -5 8 2 7
1 18 -4 24 -5 5 -20 24 -33 40 -14 17 -28 38 -31 48 -3 9 -13 17 -22 17 -15 0
-15 2 -2 10 19 13 8 13 -25 0 -14 -5 -23 -14 -20 -20 3 -5 1 -10 -5 -10 -6 0
-9 -4 -6 -9 3 -5 -1 -12 -10 -15 -8 -3 -12 -10 -9 -16 3 -5 2 -10 -3 -10 -6 0
-13 -11 -16 -25 -4 -14 -11 -23 -16 -20 -6 3 -10 -2 -10 -12 0 -10 -11 -31
-25 -46 -14 -15 -23 -27 -19 -27 3 0 1 -7 -6 -15 -7 -8 -16 -12 -21 -9 -9 5
-41 71 -44 89 0 6 -6 9 -12 8 -6 -1 -10 8 -8 22 1 13 -2 22 -6 19 -8 -4 -13
12 -7 19 2 1 -7 16 -19 33 l-22 31 22 11 c21 10 21 11 -8 12 -16 1 -49 2 -72
4 -24 1 -43 -2 -43 -6 0 -5 -9 -4 -20 2 -26 14 -26 -1 0 -18 11 -7 20 -17 20
-23 0 -5 9 -19 20 -31 11 -12 20 -30 20 -40 0 -10 5 -18 10 -18 6 0 10 -7 10
-15 0 -8 4 -15 9 -15 5 0 12 -7 15 -16 4 -10 2 -13 -7 -9 -6 4 -3 -1 7 -9 11
-9 16 -16 11 -16 -5 0 0 -7 11 -16 10 -8 12 -13 4 -9 -8 4 -6 -1 4 -9 11 -9
16 -16 11 -16 -4 0 -1 -8 7 -17 8 -10 18 -25 22 -33 17 -37 36 -64 36 -51 0 8
3 11 6 8 8 -8 54 43 54 59 0 7 7 14 15 18 8 3 14 11 13 18 -2 7 2 12 9 11 7
-2 10 3 7 11 -3 7 2 16 11 20 9 3 13 10 10 16 -3 5 -2 10 3 10 5 0 15 14 22
30 7 17 17 33 23 37 6 4 7 1 3 -8 -4 -8 0 -5 8 5 9 11 16 14 16 8 0 -11 36
-69 51 -82 3 -3 14 -20 24 -37 11 -18 23 -33 27 -33 4 0 8 -7 8 -15 0 -8 5
-15 12 -15 6 0 9 -3 5 -6 -7 -7 38 -54 52 -54 5 0 13 9 16 20 3 11 11 20 16
20 5 0 9 7 9 16 0 8 13 34 29 57 16 23 28 45 27 49 0 3 8 17 19 30 11 14 21
31 23 39 2 7 9 17 15 21 7 4 8 8 4 8 -9 0 31 61 48 72 5 4 6 8 1 8 -5 0 -4 6
2 13 9 10 0 12 -44 10 -48 -2 -54 0 -44 12 19 22 6 18 -15 -5z"/>
<path d="M1226 2263 c-6 -14 -5 -15 5 -6 7 7 10 15 7 18 -3 3 -9 -2 -12 -12z"/>
<path d="M4331 2246 c-6 -7 -7 -17 -3 -22 4 -5 -3 0 -15 10 -22 18 -22 18 -29
-8 -4 -16 -12 -25 -19 -22 -7 2 -18 -1 -25 -7 -10 -9 -11 -9 -6 0 5 9 2 11 -8
7 -9 -3 -15 -9 -14 -12 4 -15 -14 -52 -25 -53 -7 -1 -19 -2 -27 -3 -8 -1 -24
3 -34 7 -16 8 -18 6 -12 -9 6 -15 4 -16 -5 -7 -6 6 -17 9 -24 7 -7 -3 -11 4
-11 18 1 30 -80 63 -107 43 -16 -12 -16 -13 4 -18 11 -3 18 -10 14 -16 -3 -6
-1 -11 6 -11 7 0 9 -3 5 -7 -11 -11 -66 -10 -66 2 0 13 -18 -6 -22 -24 -4 -18
29 -23 36 -5 3 8 11 14 18 14 10 0 10 -2 0 -9 -11 -7 -11 -9 1 -14 8 -3 25 2
38 10 12 9 19 11 15 5 -4 -7 4 -10 25 -9 25 2 33 -2 35 -18 2 -15 -3 -21 -19
-22 -12 -1 -25 3 -29 10 -5 8 -8 5 -8 -8 0 -13 -3 -16 -8 -8 -8 12 -29 13 -47
1 -6 -4 -17 -3 -25 2 -18 11 -40 2 -34 -15 4 -8 19 -11 46 -9 23 3 44 6 46 9
3 2 14 0 25 -6 14 -8 18 -8 13 0 -10 15 7 14 23 -1 11 -11 12 -10 6 1 -5 9 -4
12 3 7 7 -4 12 -14 12 -22 0 -10 -5 -12 -12 -8 -10 6 -10 5 -1 -7 9 -12 5 -14
-27 -15 -21 0 -37 4 -34 8 3 4 0 8 -5 8 -6 0 -11 -5 -11 -11 0 -8 -5 -7 -16 2
-13 10 -17 10 -24 0 -6 -11 -9 -11 -13 0 -4 10 -6 10 -6 2 -1 -9 -8 -10 -27
-3 -16 7 -23 7 -19 0 3 -6 1 -10 -6 -10 -7 0 -9 -3 -5 -7 10 -10 156 -10 156
-1 0 4 10 4 22 -1 20 -7 23 -16 24 -70 1 -34 5 -65 9 -69 11 -11 79 -9 91 2 8
7 9 19 3 33 -5 13 -5 23 0 23 4 0 7 18 5 41 -2 36 0 40 17 36 10 -3 19 -1 19
4 0 6 8 6 19 0 15 -9 20 -7 24 9 3 11 1 18 -3 15 -5 -3 -12 0 -15 5 -5 7 -11
5 -19 -6 -24 -32 -41 -11 -41 48 0 31 3 54 7 52 4 -2 10 0 13 6 5 8 11 7 21
-1 8 -6 14 -8 14 -5 0 4 8 2 18 -3 14 -7 19 -6 19 4 0 8 -5 11 -10 8 -6 -3 -7
-1 -3 6 4 6 12 8 18 5 7 -5 9 -1 5 9 -6 15 2 21 24 19 3 -1 5 9 4 22 -2 13 5
27 16 34 15 10 19 9 19 0 1 -12 13 3 22 26 5 14 -30 16 -41 2z"/>
<path d="M2720 2180 c0 -6 -4 -9 -9 -5 -5 3 -12 1 -16 -5 -3 -5 -1 -10 5 -10
6 0 9 -4 6 -9 -3 -5 1 -12 10 -15 10 -4 13 -2 8 6 -5 7 1 9 20 6 14 -3 29 -1
32 4 3 4 10 5 16 2 6 -4 5 3 -2 16 -8 16 -15 19 -22 12 -8 -8 -17 -8 -30 -1
-12 7 -18 6 -18 -1z"/>
<path d="M2807 2184 c-7 -8 3 -34 13 -34 5 0 8 9 7 20 -1 20 -8 25 -20 14z"/>
<path d="M3303 2183 c-16 -6 -17 -29 -2 -39 12 -7 29 12 29 34 0 13 -6 14 -27
5z"/>
<path d="M4326 2143 c-4 -5 -13 -8 -18 -8 -18 0 -20 -22 -3 -29 10 -3 13 -2
10 4 -4 7 3 9 17 6 13 -2 29 3 38 12 13 14 12 15 -3 9 -9 -3 -17 -2 -17 3 0
12 -14 13 -24 3z"/>
<path d="M2515 2122 c-8 -21 -3 -23 34 -16 17 4 30 12 28 18 -6 17 -55 15 -62
-2z"/>
<path d="M3630 2120 c0 -4 3 -10 7 -14 10 -10 13 -36 4 -36 -12 0 -9 -34 3
-42 12 -8 4 -19 -16 -22 -7 -1 -19 -5 -25 -9 -8 -5 -13 -3 -13 4 0 8 -3 9 -13
0 -8 -6 -17 -8 -21 -4 -12 12 -105 9 -110 -4 -4 -9 6 -11 35 -8 22 2 37 1 35
-4 -6 -10 60 -7 93 3 16 6 21 5 17 -3 -4 -6 0 -11 8 -11 9 0 16 -4 16 -10 0
-5 -4 -10 -10 -10 -6 0 -6 -9 0 -26 13 -34 13 -37 -6 -30 -9 4 -13 2 -8 -5 4
-8 -1 -9 -15 -4 -25 8 -28 -7 -5 -26 14 -11 18 -10 30 6 13 17 14 17 14 2 0
-15 4 -16 20 -7 14 7 20 7 20 0 0 -5 5 -10 11 -10 5 0 8 3 6 8 -3 4 12 7 34 8
24 0 36 -3 32 -10 -3 -6 0 -6 7 1 16 15 6 44 -13 37 -20 -7 -23 9 -22 106 1
102 -12 124 -75 126 -22 0 -40 -2 -40 -6z m-5 -258 c-3 -3 -11 0 -18 7 -9 10
-8 11 6 5 10 -3 15 -9 12 -12z"/>
<path d="M787 2093 c3 -7 0 -13 -7 -13 -6 0 -8 -4 -5 -10 3 -5 2 -10 -4 -10
-6 0 -8 -7 -5 -15 4 -8 10 -15 16 -15 5 0 7 4 4 9 -3 5 1 12 10 15 23 9 27 8
21 -8 -4 -9 0 -13 11 -12 21 4 22 27 2 44 -13 12 -13 12 0 6 13 -7 13 -5 2 8
-16 20 -52 20 -45 1z"/>
<path d="M4216 2078 c5 -8 2 -9 -10 -5 -14 6 -15 3 -6 -13 6 -11 13 -20 16
-20 3 0 2 5 -1 10 -8 12 -3 13 29 0 18 -7 26 -6 26 1 0 7 6 6 17 -2 15 -12 16
-12 10 4 -3 9 -2 17 3 17 6 0 10 -6 10 -14 0 -17 25 -15 43 4 10 10 9 11 -2 5
-10 -6 -13 -4 -9 7 5 11 -1 15 -23 14 -16 -1 -29 -5 -29 -9 0 -5 -4 -5 -10 -2
-5 3 -10 2 -10 -2 0 -5 -9 -9 -20 -9 -11 0 -20 6 -20 13 0 7 -5 13 -11 13 -5
0 -7 -5 -3 -12z"/>
<path d="M3498 2065 c-13 -13 3 -32 25 -30 12 1 28 -2 34 -7 9 -7 15 -5 19 7
5 13 9 14 15 3 7 -10 9 -10 9 2 0 12 2 12 9 2 6 -11 10 -10 15 3 5 14 2 16
-14 12 -11 -3 -20 -2 -20 2 0 4 -7 8 -15 8 -8 0 -12 -4 -9 -8 2 -4 0 -10 -6
-14 -5 -3 -10 1 -10 10 0 12 -4 14 -19 5 -13 -7 -20 -7 -23 1 -2 6 -6 7 -10 4z"/>
<path d="M4351 2019 c-14 -5 -31 -7 -38 -4 -8 3 -11 0 -8 -6 4 -6 0 -9 -10 -7
-10 2 -20 -1 -21 -7 -4 -9 11 -10 83 -6 15 1 21 7 20 21 -1 11 -1 20 -2 19 0
0 -11 -5 -24 -10z"/>
<path d="M793 2013 c-7 -2 -13 -11 -13 -19 0 -8 -4 -14 -10 -14 -5 0 -9 -3 -9
-7 3 -18 -1 -36 -7 -30 -10 10 -33 -17 -24 -28 8 -10 10 -16 10 -36 0 -5 4 -8
8 -5 5 3 15 -6 22 -19 11 -20 39 -41 44 -33 11 18 56 67 57 61 0 -4 4 1 8 12
8 19 -10 60 -34 77 -5 4 -6 8 -1 8 5 0 -1 9 -14 20 -13 11 -23 20 -24 19 -1 0
-7 -3 -13 -6z"/>
<path d="M2869 1990 c0 -3 -2 -12 -4 -20 -2 -11 5 -15 24 -14 14 1 26 3 26 4
0 1 10 3 23 6 14 2 21 0 17 -6 -3 -5 -1 -10 4 -10 6 0 11 5 11 11 0 6 5 7 13
2 21 -13 35 -12 42 4 9 24 -4 29 -20 7 -11 -15 -14 -16 -15 -3 0 11 -9 15 -29
13 -16 -1 -34 -5 -39 -8 -6 -3 -13 0 -16 6 -5 10 -7 10 -12 -1 -5 -11 -8 -11
-15 0 -5 8 -9 12 -10 9z"/>
<path d="M3994 1959 c-2 -4 -12 -6 -21 -5 -21 3 -43 -17 -43 -38 0 -9 -5 -16
-11 -16 -5 0 -7 -4 -4 -10 3 -5 -1 -10 -9 -10 -9 0 -13 -6 -10 -14 4 -11 12
-12 37 -3 47 16 99 57 93 73 -3 8 0 11 10 7 10 -3 12 0 8 10 -6 15 -41 19 -50
6z"/>
<path d="M4217 1964 c-3 -3 10 -21 29 -39 19 -18 34 -37 34 -42 0 -4 11 -13
24 -19 33 -15 61 6 52 40 -3 15 -13 26 -22 26 -8 0 -12 5 -8 11 4 7 -1 9 -12
7 -11 -2 -25 3 -32 12 -9 10 -11 10 -6 1 5 -10 3 -12 -7 -5 -18 11 -45 15 -52
8z"/>
<path d="M2195 1880 c-3 -5 -1 -10 4 -10 6 0 11 5 11 10 0 6 -2 10 -4 10 -3 0
-8 -4 -11 -10z"/>
<path d="M2495 1880 c-3 -5 -1 -10 4 -10 6 0 11 5 11 10 0 6 -2 10 -4 10 -3 0
-8 -4 -11 -10z"/>
<path d="M3536 1874 c-8 -21 -8 -21 8 -21 8 0 12 7 9 16 -4 12 -1 12 10 -2 15
-18 32 -10 19 8 -12 17 -39 16 -46 -1z"/>
<path d="M760 1800 c0 -5 5 -12 10 -15 16 -10 2 -24 -20 -20 -11 2 -20 -1 -20
-7 0 -7 -6 -6 -15 2 -12 10 -15 10 -15 -1 0 -9 -3 -10 -8 -4 -10 15 -64 16
-55 1 5 -8 3 -8 -8 0 -16 12 -48 12 -66 1 -6 -4 -14 -3 -17 1 -6 10 -46 10
-63 -1 -6 -4 -14 -3 -17 1 -3 5 -18 8 -33 6 -15 -1 -36 -2 -45 -3 -10 -1 -18
-8 -18 -17 0 -8 -4 -12 -10 -9 -6 4 -7 -2 -1 -17 l8 -23 440 -3 439 -3 2 37
c2 30 0 35 -13 30 -9 -3 -13 -2 -10 4 8 13 -38 8 -47 -5 -5 -6 -8 -6 -8 1 0
13 -58 13 -79 0 -6 -4 -18 -3 -26 4 -9 8 -15 8 -20 0 -3 -6 -11 -7 -17 -4 -19
12 -58 13 -58 2 0 -6 -6 -5 -15 2 -12 10 -15 10 -15 -1 0 -9 -3 -10 -8 -3 -4
6 -26 10 -48 9 -31 -1 -41 2 -37 12 3 7 0 13 -7 13 -6 0 -8 5 -5 10 3 6 2 10
-4 10 -5 0 -11 -5 -13 -12 -3 -7 -9 -8 -19 -3 -19 13 -39 15 -39 5z"/>
</g>
</svg>
